<svg width="146" height="47" viewBox="0 0 146 47" fill="none" xmlns="http://www.w3.org/2000/svg">
<path d="M18.55 16.7804C18.55 16.3307 18.5686 15.8889 18.6029 15.4524H11.4282V6.16669H6.07761V15.4524L0 15.4445V19.9048L2.36337 19.9101V19.918H6.07761V38.0873C6.07761 42.2566 9.63059 45.5238 13.7361 45.5238H16.9824L17.0009 40.6773H14.4128C12.7262 40.6773 11.4282 39.4392 11.4282 37.463V19.918H17.1172V19.9101H18.8435C18.6505 18.8968 18.55 17.8492 18.55 16.7804Z" fill="url(#paint0_linear)"/>
<path d="M52.0311 15.4524H23.9297C23.9456 15.3016 23.9641 15.1534 23.9879 15.0053C24.0091 14.8571 24.0355 14.709 24.0619 14.5635C24.1386 14.1481 24.2364 13.7381 24.3554 13.3413C24.3792 13.2566 24.4056 13.172 24.4347 13.0873C24.4875 12.9206 24.5457 12.754 24.6091 12.5926C24.67 12.4286 24.736 12.2672 24.8048 12.1058C24.8391 12.0265 24.8735 11.9444 24.9105 11.8677C24.9819 11.709 25.0559 11.5556 25.1379 11.4021C25.2066 11.2645 25.278 11.1296 25.3573 10.9974C25.3705 10.9709 25.3837 10.9471 25.3996 10.9206C25.4366 10.8571 25.4736 10.791 25.5159 10.7275C25.6084 10.5741 25.7036 10.4206 25.8067 10.2725C25.8939 10.1349 25.9891 10.0026 26.0869 9.87301C26.1319 9.80952 26.1794 9.74867 26.227 9.68783C26.3856 9.47883 26.5548 9.27513 26.7319 9.07936V9.07672C28.2626 7.36243 30.3114 6.12698 32.6615 5.58201C32.7488 5.56085 32.836 5.54233 32.9232 5.52645C32.9444 5.52116 32.9655 5.51587 32.9893 5.51058C33.0052 5.50794 33.0184 5.50529 33.0343 5.50264C33.0686 5.49471 33.1056 5.48942 33.14 5.48413C33.1559 5.47883 33.1717 5.47619 33.1876 5.47354C33.2061 5.4709 33.2246 5.46561 33.2457 5.46296C33.3092 5.45238 33.3726 5.4418 33.4361 5.43122C33.4414 5.42857 33.4467 5.42857 33.4546 5.42857C33.5207 5.41799 33.5894 5.40741 33.6555 5.39682C33.6581 5.39418 33.6608 5.39682 33.6608 5.39682C33.7586 5.3836 33.8564 5.37037 33.9569 5.35979C33.9701 5.35714 33.9807 5.3545 33.9939 5.3545C34.4486 5.30159 34.9139 5.27513 35.3844 5.27513C39.786 5.27513 43.5372 7.61905 45.4935 11.209L50.0484 8.7619L50.0616 8.75661C49.8739 8.4127 49.6756 8.07143 49.4641 7.74603C49.4589 7.73809 49.4536 7.73016 49.4483 7.72222C49.3663 7.58995 49.2817 7.46032 49.1945 7.33333C49.0703 7.15079 48.9407 6.96825 48.8059 6.78836C48.7292 6.68254 48.6499 6.57672 48.568 6.47354C48.531 6.42063 48.4913 6.37301 48.449 6.3201C48.3723 6.22751 48.2983 6.13492 48.2243 6.04497C48.0842 5.87301 47.9362 5.7037 47.7828 5.53704C47.7617 5.51323 47.7432 5.49206 47.722 5.46825C47.6348 5.37301 47.5475 5.28042 47.4577 5.18783C47.3308 5.05291 47.2039 4.92328 47.0717 4.79365C46.9686 4.69048 46.8602 4.58995 46.7545 4.48942C46.6884 4.42592 46.6197 4.36243 46.5483 4.30159C46.4663 4.22751 46.3817 4.15344 46.2971 4.07936C46.276 4.06085 46.2575 4.04497 46.239 4.0291C46.1068 3.91534 45.972 3.80159 45.8345 3.69312C45.7182 3.59788 45.6019 3.50794 45.4803 3.41799C45.43 3.37566 45.3745 3.33333 45.319 3.2963C45.2238 3.22222 45.1234 3.15079 45.0229 3.07936C44.9886 3.05291 44.9542 3.02645 44.9145 3.00529C44.7771 2.90741 44.6343 2.81217 44.4916 2.71693C44.3356 2.61376 44.1823 2.51587 44.0236 2.42063C43.8835 2.33598 43.7408 2.25132 43.598 2.17196C43.5716 2.15608 43.5452 2.14021 43.5187 2.12434C43.4103 2.06614 43.2993 2.00529 43.1909 1.94974C42.9821 1.83598 42.7732 1.73016 42.5565 1.62963C42.3899 1.54762 42.2207 1.4709 42.0489 1.39683C41.9326 1.34392 41.8136 1.29365 41.6973 1.24603C41.692 1.24339 41.6867 1.24339 41.6841 1.24339C41.5968 1.20635 41.507 1.16931 41.4171 1.13492C41.2347 1.06085 41.0496 0.994709 40.8619 0.928571C40.8011 0.907407 40.7403 0.886243 40.6795 0.867725C40.6161 0.846561 40.5526 0.825397 40.4892 0.804233C40.3147 0.746032 40.1429 0.695767 39.971 0.645503C39.9129 0.62963 39.8574 0.613756 39.7992 0.597883C39.6882 0.568783 39.5745 0.537037 39.4608 0.507936C39.437 0.502645 39.4106 0.494709 39.3842 0.489418C39.326 0.47619 39.2678 0.460317 39.2097 0.44709C39.0854 0.415344 38.9612 0.388889 38.8343 0.362434C38.6995 0.335979 38.5673 0.306878 38.4325 0.285714C38.4113 0.280423 38.3875 0.275132 38.3611 0.269841C38.1893 0.238095 38.0148 0.208995 37.8403 0.185185C37.6552 0.15873 37.4755 0.132275 37.2904 0.113757C37.108 0.0925926 36.923 0.0740741 36.7379 0.058201C36.5529 0.0449735 36.3678 0.031746 36.1801 0.0238095C36.077 0.0185185 35.9739 0.0132275 35.8682 0.00793651C35.7069 0.0026455 35.5457 0 35.3844 0C35.2443 0 35.1068 0.0026455 34.9694 0.005291C34.8372 0.00793651 34.7077 0.0132275 34.5781 0.021164C34.4882 0.0238095 34.3983 0.0291005 34.3111 0.0343915C34.1921 0.0396825 34.0758 0.05291 33.9569 0.0608465C33.8855 0.0661376 33.8168 0.0714286 33.7454 0.0793651C33.6714 0.0873016 33.5947 0.0952381 33.5207 0.103175C25.5397 0.94709 19.2347 7.40211 18.6029 15.4524C18.5686 15.8889 18.55 16.3307 18.55 16.7804C18.55 17.8492 18.6505 18.8968 18.8435 19.91C20.308 27.6799 27.1285 33.5582 35.3183 33.5582C39.2308 33.5582 42.8287 32.2116 45.6812 29.9603C45.705 29.9418 45.7261 29.9259 45.7473 29.9074C45.7473 29.9048 45.7499 29.9048 45.7499 29.9048C45.8557 29.8227 45.964 29.7354 46.0671 29.6508C46.0883 29.6323 46.1094 29.6111 46.1332 29.5952C46.202 29.537 46.2681 29.4762 46.3368 29.4206C46.3659 29.3968 46.3923 29.3704 46.4187 29.3439C46.4478 29.3175 46.4795 29.2936 46.5086 29.2672C46.5377 29.2407 46.5694 29.2143 46.5959 29.1878C46.6091 29.1746 46.6223 29.164 46.6355 29.1534C46.7148 29.082 46.7941 29.0053 46.8761 28.9312C46.884 28.9233 46.8946 28.9153 46.9052 28.9048C46.9686 28.8439 47.032 28.7804 47.0955 28.7169C47.2118 28.6005 47.3255 28.4868 47.4365 28.373C47.5502 28.254 47.6612 28.1376 47.7696 28.0159C50.4502 25.0397 52.0839 21.1005 52.0839 16.7804C52.0839 16.3307 52.0654 15.8889 52.0311 15.4524ZM46.1359 20.8069C44.5577 25.2143 40.3755 28.2302 35.3844 28.2302C35.1306 28.2302 34.8795 28.2196 34.6283 28.2037C34.5332 28.1984 34.4354 28.1931 34.3402 28.1852C34.2027 28.1746 34.0653 28.1614 33.9278 28.1429C33.9199 28.1429 33.9093 28.1402 33.9014 28.1402C33.8723 28.1349 33.8432 28.1323 33.8141 28.127C30.9379 27.7566 28.4318 26.3783 26.6526 24.3386C26.5707 24.246 26.4914 24.1508 26.4147 24.0529C26.3671 23.9973 26.3222 23.9444 26.2825 23.8889C26.1398 23.7063 25.9997 23.5185 25.8701 23.328C25.8199 23.2593 25.775 23.1905 25.7327 23.1217C25.6084 22.9365 25.4921 22.7487 25.3837 22.5556C25.3335 22.4735 25.2859 22.3889 25.2436 22.3042C25.233 22.2857 25.2225 22.2672 25.2145 22.2513C25.1696 22.1693 25.1273 22.0847 25.085 22C25.0374 21.9048 24.9898 21.8095 24.9449 21.7143C24.8999 21.619 24.8576 21.5212 24.8153 21.4233C24.781 21.3439 24.7466 21.2593 24.7123 21.1772C24.6647 21.0635 24.6197 20.9471 24.5774 20.8307C24.551 20.7593 24.5246 20.6878 24.5008 20.6138C24.4664 20.5185 24.4347 20.4259 24.4056 20.3307C24.3607 20.1905 24.321 20.0503 24.2813 19.91H46.4161C46.3421 20.1958 46.2548 20.4788 46.1544 20.7513C46.1517 20.7619 46.1491 20.7698 46.1464 20.7804C46.1412 20.7884 46.1385 20.7989 46.1359 20.8069Z" fill="#3A3A3A"/>
<path d="M33.0343 5.50267C33.0686 5.49474 33.1056 5.48944 33.14 5.48415C33.1559 5.47886 33.1717 5.47622 33.1876 5.47357C33.1374 5.48151 33.0845 5.49209 33.0343 5.50267Z" fill="url(#paint1_linear)"/>
<path d="M80.5262 15.3412V19.5106C79.3921 19.5106 77.4068 19.9074 76.6032 20.6984C75.7995 21.4894 75.4003 22.4524 75.4003 23.5846V31.3942V32.7989H71.2261V15.3412H75.3686V16.5317C76.9416 15.7381 78.8978 15.3412 80.5262 15.3412Z" fill="#3A3A3A"/>
<path d="M115.488 18.0423C113.777 16.3439 111.697 15.4947 109.241 15.4947C106.788 15.4947 104.707 16.3439 102.997 18.0423C101.286 19.7381 100.432 21.8122 100.432 24.2645V32.7989H104.871V24.2698C104.871 23.0661 105.299 22.045 106.159 21.201C107.015 20.3598 108.049 19.9365 109.259 19.9365C110.446 19.9365 111.469 20.3651 112.326 21.2169C113.185 22.0714 113.613 23.0873 113.613 24.2698V32.7698H118.055V24.2645C118.052 21.8122 117.195 19.7381 115.488 18.0423Z" fill="#3A3A3A"/>
<path d="M108.469 26.3651C108.144 26.0423 107.75 25.8783 107.295 25.8783C106.825 25.8783 106.425 26.037 106.1 26.3571C105.775 26.6746 105.611 27.0714 105.611 27.5423C105.611 28.0132 105.775 28.4127 106.1 28.7354C106.425 29.0608 106.825 29.2249 107.295 29.2249C107.766 29.2249 108.16 29.0608 108.48 28.7354C108.797 28.4127 108.955 28.0132 108.955 27.5423C108.955 27.0846 108.794 26.6931 108.469 26.3651Z" fill="#2A66FF"/>
<path d="M90.95 15.5106C90.7808 15.5 90.6063 15.4947 90.4318 15.4947C89.4616 15.4947 88.4729 15.6799 87.4604 16.045C85.7368 16.6693 84.3568 17.7222 83.3232 19.1984C82.2896 20.6746 81.7714 22.3307 81.7714 24.1614C81.7714 26.5555 82.6068 28.5926 84.2775 30.2778C85.9483 31.9577 87.9891 32.7989 90.4027 32.7989C92.0047 32.7989 93.4376 32.4338 94.6986 31.7037V32.7989H99.3381V15.5106H90.95ZM93.4402 27.1825C92.5969 28.0159 91.5844 28.4312 90.4001 28.4312C89.5383 28.4312 88.7293 28.1719 87.9759 27.6508C86.7493 26.8095 86.1333 25.6402 86.1333 24.1455C86.1333 23.2592 86.3924 22.4365 86.9106 21.6799C87.6983 20.5106 88.8113 19.9047 90.2441 19.8677C90.26 19.8651 90.2732 19.8651 90.2891 19.8651H90.3076C90.3393 19.8598 90.3684 19.8598 90.4001 19.8598C90.4556 19.8598 90.5164 19.8598 90.5719 19.8651H94.6668V23.5926C94.688 23.7725 94.6986 23.9577 94.6986 24.1455C94.6986 25.336 94.2809 26.3492 93.4402 27.1825Z" fill="#3A3A3A"/>
<path d="M137.178 28.545C136.208 28.545 135.338 28.0899 134.569 27.5265C133.797 26.963 133.268 26.2196 132.983 25.2963H145.9C145.966 24.8571 146 24.418 146 23.9788C146 21.5159 145.146 19.4365 143.438 17.7328C141.731 16.0291 139.645 15.1772 137.178 15.1772C134.712 15.1772 132.618 16.0291 130.902 17.7354C129.181 19.4418 128.322 21.5238 128.322 23.9894C128.322 26.4762 129.176 28.5741 130.884 30.2751C132.592 31.9815 134.688 32.7857 137.181 32.7857L145.9 32.7963V28.5476C144.876 28.5688 138.521 28.545 137.178 28.545ZM137.178 19.6402C138.918 19.6402 140.197 20.4127 141.012 21.955H133.313C134.128 20.4127 135.412 19.6402 137.178 19.6402Z" fill="#3A3A3A"/>
<path d="M17.0115 40.6772H13.781V45.5238H17.0115V40.6772Z" fill="url(#paint2_linear)"/>
<path d="M61.6458 15.5106C61.4766 15.5 61.3048 15.4947 61.1276 15.4947C60.1601 15.4947 59.1687 15.6799 58.1563 16.045C56.4326 16.6693 55.0527 17.7222 54.019 19.1984C52.9854 20.6746 52.4673 22.3307 52.4673 24.1614C52.4673 26.5555 53.3026 28.5926 54.9734 30.2778C56.6441 31.9577 58.685 32.7989 61.0986 32.7989C62.7006 32.7989 64.1334 32.4338 65.3944 31.7037V32.7989H70.0339V15.5106H61.6458ZM64.136 27.1825C63.2927 28.0159 62.2802 28.4312 61.0959 28.4312C60.2341 28.4312 59.4278 28.1719 58.6718 27.6508C57.4451 26.8095 56.8318 25.6402 56.8318 24.1455C56.8318 23.2592 57.0882 22.4365 57.6064 21.6799C58.3968 20.5079 59.5098 19.9047 60.9426 19.8677C60.9558 19.8651 60.969 19.8651 60.9849 19.8651H61.0034C61.0351 19.8598 61.0642 19.8598 61.0959 19.8598C61.1514 19.8598 61.2122 19.8598 61.2678 19.8651H65.368V23.6296C65.3865 23.7963 65.3944 23.9682 65.3944 24.1455C65.3944 25.336 64.9767 26.3492 64.136 27.1825Z" fill="#3A3A3A"/>
<path d="M123.44 19.4973V25.6534C123.44 26.6323 123.622 27.6825 124.479 28.1429C125.229 28.5476 126.073 28.5476 127.051 28.5476L127.067 32.7963C125.079 32.7963 122.459 32.6085 121.076 31.2302C119.691 29.8545 119.3 27.6481 119.3 25.6587V11.6931H123.442V15.5106H127.101V19.4973H123.44Z" fill="#3A3A3A"/>
<path d="M24.2813 19.9101C24.2813 19.9101 23.6363 17.5688 23.9324 15.4524H46.8047C46.9131 15.7117 46.9633 18.7011 46.4161 19.9101H24.2813Z" fill="url(#paint3_linear)"/>
<mask id="path-13-inside-1" fill="white">
<path d="M26.9514 39.0952H27.406L30.3774 45.5238H29.8593L29.0477 43.7354H25.2859L24.4743 45.5238H23.9826L26.9514 39.0952ZM28.8468 43.3069L27.1708 39.6137L25.4842 43.3069H28.8468Z"/>
</mask>
<path d="M26.9514 39.0952H27.406L30.3774 45.5238H29.8593L29.0477 43.7354H25.2859L24.4743 45.5238H23.9826L26.9514 39.0952ZM28.8468 43.3069L27.1708 39.6137L25.4842 43.3069H28.8468Z" fill="#3A3A3A"/>
<path d="M26.9514 39.0952V25.0952H17.9959L14.2412 33.2256L26.9514 39.0952ZM27.406 39.0952L40.1142 33.2213L36.3582 25.0952L27.406 25.0952V39.0952ZM30.3774 45.5238V59.5238H52.2716L43.0856 39.6499L30.3774 45.5238ZM29.8593 45.5238L17.1107 51.3093L20.8385 59.5238H29.8593V45.5238ZM29.0477 43.7354L41.7964 37.9499L38.0685 29.7354H29.0477V43.7354ZM25.2859 43.7354V29.7354H16.2651L12.5372 37.9499L25.2859 43.7354ZM24.4743 45.5238V59.5238H33.4951L37.223 51.3093L24.4743 45.5238ZM23.9826 45.5238L11.2725 39.6542L2.09658 59.5238H23.9826V45.5238ZM28.8468 43.3069V57.3069H50.5746L41.5954 37.5212L28.8468 43.3069ZM27.1708 39.6137L39.9194 33.8281L27.2108 5.82504L14.4359 33.7979L27.1708 39.6137ZM25.4842 43.3069L12.7493 37.491L3.69965 57.3069H25.4842V43.3069ZM26.9514 53.0952H27.406V25.0952H26.9514V53.0952ZM14.6979 44.9691L17.6693 51.3977L43.0856 39.6499L40.1142 33.2213L14.6979 44.9691ZM30.3774 31.5238H29.8593V59.5238H30.3774V31.5238ZM42.6079 39.7383L41.7964 37.9499L16.2991 49.5209L17.1107 51.3093L42.6079 39.7383ZM29.0477 29.7354H25.2859V57.7354H29.0477V29.7354ZM12.5372 37.9499L11.7257 39.7383L37.223 51.3093L38.0345 49.5209L12.5372 37.9499ZM24.4743 31.5238H23.9826V59.5238H24.4743V31.5238ZM36.6927 51.3934L39.6615 44.9648L14.2412 33.2256L11.2725 39.6542L36.6927 51.3934ZM41.5954 37.5212L39.9194 33.8281L14.4222 45.3994L16.0982 49.0925L41.5954 37.5212ZM14.4359 33.7979L12.7493 37.491L38.219 49.1227L39.9056 45.4296L14.4359 33.7979ZM25.4842 57.3069H28.8468V29.3069H25.4842V57.3069Z" fill="black" mask="url(#path-13-inside-1)"/>
<mask id="path-15-inside-2" fill="white">
<path d="M33.8405 38.8677H34.2873V45.5238H33.8405V38.8677Z"/>
</mask>
<path d="M33.8405 38.8677H34.2873V45.5238H33.8405V38.8677Z" fill="#3A3A3A"/>
<path d="M33.8405 38.8677V24.8677H19.8405V38.8677H33.8405ZM34.2873 38.8677H48.2873V24.8677H34.2873V38.8677ZM34.2873 45.5238V59.5238H48.2873V45.5238H34.2873ZM33.8405 45.5238H19.8405V59.5238H33.8405V45.5238ZM33.8405 52.8677H34.2873V24.8677H33.8405V52.8677ZM20.2873 38.8677V45.5238H48.2873V38.8677H20.2873ZM34.2873 31.5238H33.8405V59.5238H34.2873V31.5238ZM47.8405 45.5238V38.8677H19.8405V45.5238H47.8405Z" fill="black" mask="url(#path-15-inside-2)"/>
<mask id="path-17-inside-3" fill="white">
<path d="M38.1046 43.7169V40.873H38.5514V43.6349C38.5514 44.5926 39.0881 45.2222 40.0265 45.2222C40.9386 45.2222 41.6391 44.5291 41.6391 43.5635V40.873H42.0859V45.5238H41.6391V44.6587C41.3298 45.2063 40.809 45.6349 39.9631 45.6349C38.7893 45.6322 38.1046 44.8307 38.1046 43.7169Z"/>
</mask>
<path d="M38.1046 43.7169V40.873H38.5514V43.6349C38.5514 44.5926 39.0881 45.2222 40.0265 45.2222C40.9386 45.2222 41.6391 44.5291 41.6391 43.5635V40.873H42.0859V45.5238H41.6391V44.6587C41.3298 45.2063 40.809 45.6349 39.9631 45.6349C38.7893 45.6322 38.1046 44.8307 38.1046 43.7169Z" fill="#3A3A3A"/>
<path d="M38.1046 40.873V26.873H24.1046V40.873H38.1046ZM38.5514 40.873H52.5514V26.873H38.5514V40.873ZM41.6391 40.873V26.873H27.6391V40.873H41.6391ZM42.0859 40.873H56.0859V26.873H42.0859V40.873ZM42.0859 45.5238V59.5238H56.0859V45.5238H42.0859ZM41.6391 45.5238H27.6391V59.5238H41.6391V45.5238ZM41.6391 44.6587H55.6391V-8.59612L29.4491 37.7737L41.6391 44.6587ZM39.9631 45.6349L39.9315 59.6349L39.9473 59.6349H39.9631V45.6349ZM52.1046 43.7169V40.873H24.1046V43.7169H52.1046ZM38.1046 54.873H38.5514V26.873H38.1046V54.873ZM24.5514 40.873V43.6349H52.5514V40.873H24.5514ZM24.5514 43.6349C24.5514 46.6436 25.413 50.7175 28.5695 54.1958C31.8893 57.8542 36.2709 59.2222 40.0265 59.2222V31.2222C42.8436 31.2222 46.4877 32.2754 49.3046 35.3795C51.9581 38.3036 52.5514 41.5838 52.5514 43.6349H24.5514ZM40.0265 59.2222C48.8888 59.2222 55.6391 52.041 55.6391 43.5635H27.6391C27.6391 40.571 28.772 37.4 31.1935 34.9379C33.611 32.48 36.8372 31.2222 40.0265 31.2222V59.2222ZM55.6391 43.5635V40.873H27.6391V43.5635H55.6391ZM41.6391 54.873H42.0859V26.873H41.6391V54.873ZM28.0859 40.873V45.5238H56.0859V40.873H28.0859ZM42.0859 31.5238H41.6391V59.5238H42.0859V31.5238ZM55.6391 45.5238V44.6587H27.6391V45.5238H55.6391ZM29.4491 37.7737C30.1724 36.4931 31.4248 34.859 33.4602 33.5574C35.5874 32.1972 37.8967 31.6349 39.9631 31.6349V59.6349C46.7048 59.6349 51.4832 55.6972 53.8291 51.5437L29.4491 37.7737ZM39.9946 31.6349C42.7392 31.6411 46.1539 32.68 48.8194 35.5304C51.3715 38.2595 52.1046 41.4328 52.1046 43.7169H24.1046C24.1046 47.1148 25.1802 51.2457 28.368 54.6548C31.6693 58.1851 36.0132 59.626 39.9315 59.6349L39.9946 31.6349Z" fill="black" mask="url(#path-17-inside-3)"/>
<mask id="path-19-inside-4" fill="white">
<path d="M45.8424 46.2883L46.1068 45.9233C46.662 46.3518 47.3017 46.5794 47.9837 46.5794C49.0491 46.5794 49.8052 45.9682 49.8052 44.7725V44.0979C49.4033 44.6719 48.7847 45.1746 47.8648 45.1746C46.7439 45.1746 45.631 44.3175 45.631 42.9868V42.9682C45.631 41.627 46.7439 40.7619 47.8648 40.7619C48.7953 40.7619 49.4219 41.254 49.8052 41.8016V40.8704H50.2519V44.8016C50.2519 45.4762 50.0325 46.0053 49.6598 46.3783C49.258 46.7804 48.6579 46.9973 47.9732 46.9973C47.1986 47 46.4795 46.7645 45.8424 46.2883ZM49.8316 42.9788V42.9603C49.8316 41.8836 48.8746 41.1905 47.9097 41.1905C46.9342 41.1905 46.1147 41.8651 46.1147 42.9497V42.9682C46.1147 44.0159 46.9527 44.746 47.9097 44.746C48.8746 44.7487 49.8316 44.037 49.8316 42.9788Z"/>
</mask>
<path d="M45.8424 46.2883L46.1068 45.9233C46.662 46.3518 47.3017 46.5794 47.9837 46.5794C49.0491 46.5794 49.8052 45.9682 49.8052 44.7725V44.0979C49.4033 44.6719 48.7847 45.1746 47.8648 45.1746C46.7439 45.1746 45.631 44.3175 45.631 42.9868V42.9682C45.631 41.627 46.7439 40.7619 47.8648 40.7619C48.7953 40.7619 49.4219 41.254 49.8052 41.8016V40.8704H50.2519V44.8016C50.2519 45.4762 50.0325 46.0053 49.6598 46.3783C49.258 46.7804 48.6579 46.9973 47.9732 46.9973C47.1986 47 46.4795 46.7645 45.8424 46.2883ZM49.8316 42.9788V42.9603C49.8316 41.8836 48.8746 41.1905 47.9097 41.1905C46.9342 41.1905 46.1147 41.8651 46.1147 42.9497V42.9682C46.1147 44.0159 46.9527 44.746 47.9097 44.746C48.8746 44.7487 49.8316 44.037 49.8316 42.9788Z" fill="#3A3A3A"/>
<path d="M45.8424 46.2883L34.5031 38.0774L26.4154 49.2465L37.4609 57.5022L45.8424 46.2883ZM46.1068 45.9233L54.6619 34.8413L43.2344 26.0194L34.7675 37.7123L46.1068 45.9233ZM49.8052 44.0979H63.8052V-0.317601L38.3357 36.0698L49.8052 44.0979ZM49.8052 41.8016L38.3358 49.8299L63.8052 86.2159V41.8016H49.8052ZM49.8052 40.8704V26.8704H35.8052V40.8704H49.8052ZM50.2519 40.8704H64.2519V26.8704H50.2519V40.8704ZM49.6598 46.3783L39.7567 36.4824L49.6598 46.3783ZM47.9732 46.9973V32.9973H47.9493L47.9254 32.9974L47.9732 46.9973ZM47.9097 44.746L47.9481 30.7461L47.9289 30.746H47.9097V44.746ZM57.1818 54.4993L57.4461 54.1342L34.7675 37.7123L34.5031 38.0774L57.1818 54.4993ZM37.5517 57.0052C40.4161 59.2165 44.0318 60.5794 47.9837 60.5794V32.5794C50.5716 32.5794 52.9078 33.4872 54.6619 34.8413L37.5517 57.0052ZM47.9837 60.5794C51.1161 60.5794 55.3314 59.6566 58.8725 56.3347C62.5591 52.8762 63.8052 48.4245 63.8052 44.7725H35.8052C35.8052 42.3162 36.6732 38.7679 39.7155 35.9139C42.6121 33.1965 45.9168 32.5794 47.9837 32.5794V60.5794ZM63.8052 44.7725V44.0979H35.8052V44.7725H63.8052ZM38.3357 36.0698C38.9397 35.2068 39.9946 33.9759 41.6764 32.9379C43.4753 31.8276 45.6225 31.1746 47.8648 31.1746V59.1746C54.7789 59.1746 59.1937 55.099 61.2747 52.126L38.3357 36.0698ZM47.8648 31.1746C53.2014 31.1746 59.631 35.3697 59.631 42.9868H31.631C31.631 53.2652 40.2864 59.1746 47.8648 59.1746V31.1746ZM59.631 42.9868V42.9682H31.631V42.9868H59.631ZM59.631 42.9682C59.631 50.4662 53.3201 54.7619 47.8648 54.7619V26.7619C40.1677 26.7619 31.631 32.7877 31.631 42.9682H59.631ZM47.8648 54.7619C45.734 54.7619 43.6535 54.1651 41.8662 53.0986C40.1737 52.0887 39.0462 50.8448 38.3358 49.8299L61.2745 33.7733C59.0095 30.5374 54.5151 26.7619 47.8648 26.7619V54.7619ZM63.8052 41.8016V40.8704H35.8052V41.8016H63.8052ZM49.8052 54.8704H50.2519V26.8704H49.8052V54.8704ZM36.2519 40.8704V44.8016H64.2519V40.8704H36.2519ZM36.2519 44.8016C36.2519 42.278 37.1645 39.0765 39.7567 36.4824L59.5629 56.2742C62.9006 52.9341 64.2519 48.6744 64.2519 44.8016H36.2519ZM39.7567 36.4824C42.555 33.682 45.8432 32.9973 47.9732 32.9973V60.9973C51.4725 60.9973 55.9609 59.8788 59.5629 56.2742L39.7567 36.4824ZM47.9254 32.9974C50.2041 32.9896 52.4405 33.7415 54.224 35.0745L37.4609 57.5022C40.5185 59.7875 44.1931 61.0103 48.021 60.9973L47.9254 32.9974ZM63.8316 42.9788V42.9603H35.8316V42.9788H63.8316ZM63.8316 42.9603C63.8316 32.1821 54.4778 27.1905 47.9097 27.1905V55.1905C45.1693 55.1905 42.3932 54.2448 40.1313 52.3097C37.6921 50.2229 35.8316 46.9044 35.8316 42.9603H63.8316ZM47.9097 27.1905C40.1631 27.1905 32.1147 33.206 32.1147 42.9497H60.1147C60.1147 46.145 58.8112 49.4663 56.1856 51.9105C53.6872 54.2363 50.6282 55.1905 47.9097 55.1905V27.1905ZM32.1147 42.9497V42.9682H60.1147V42.9497H32.1147ZM32.1147 42.9682C32.1147 52.3821 39.8706 58.746 47.9097 58.746V30.746C54.0349 30.746 60.1147 35.6496 60.1147 42.9682H32.1147ZM47.8713 58.746C54.5805 58.7644 63.8316 53.6457 63.8316 42.9788H35.8316C35.8316 38.9778 37.7303 35.6894 40.0976 33.6511C42.3144 31.7423 45.099 30.7383 47.9481 30.7461L47.8713 58.746Z" fill="black" mask="url(#path-19-inside-4)"/>
<mask id="path-21-inside-5" fill="white">
<path d="M54.0058 43.7169V40.873H54.4526V43.6349C54.4526 44.5926 54.9892 45.2222 55.9277 45.2222C56.8397 45.2222 57.5403 44.5291 57.5403 43.5635V40.873H57.987V45.5238H57.5403V44.6587C57.231 45.2063 56.7102 45.6349 55.8642 45.6349C54.6878 45.6322 54.0058 44.8307 54.0058 43.7169Z"/>
</mask>
<path d="M54.0058 43.7169V40.873H54.4526V43.6349C54.4526 44.5926 54.9892 45.2222 55.9277 45.2222C56.8397 45.2222 57.5403 44.5291 57.5403 43.5635V40.873H57.987V45.5238H57.5403V44.6587C57.231 45.2063 56.7102 45.6349 55.8642 45.6349C54.6878 45.6322 54.0058 44.8307 54.0058 43.7169Z" fill="#3A3A3A"/>
<path d="M54.0058 40.873V26.873H40.0058V40.873H54.0058ZM54.4526 40.873H68.4526V26.873H54.4526V40.873ZM57.5403 40.873V26.873H43.5403V40.873H57.5403ZM57.987 40.873H71.987V26.873H57.987V40.873ZM57.987 45.5238V59.5238H71.987V45.5238H57.987ZM57.5403 45.5238H43.5403V59.5238H57.5403V45.5238ZM57.5403 44.6587H71.5403V-8.59608L45.3503 37.7737L57.5403 44.6587ZM55.8642 45.6349L55.8328 59.6349L55.8485 59.6349H55.8642V45.6349ZM68.0058 43.7169V40.873H40.0058V43.7169H68.0058ZM54.0058 54.873H54.4526V26.873H54.0058V54.873ZM40.4526 40.873V43.6349H68.4526V40.873H40.4526ZM40.4526 43.6349C40.4526 46.6436 41.3142 50.7175 44.4706 54.1958C47.7905 57.8542 52.1721 59.2222 55.9277 59.2222V31.2222C58.7448 31.2222 62.3889 32.2754 65.2058 35.3795C67.8593 38.3036 68.4526 41.5838 68.4526 43.6349H40.4526ZM55.9277 59.2222C64.7899 59.2222 71.5403 52.0411 71.5403 43.5635H43.5403C43.5403 40.571 44.6732 37.4 47.0947 34.9379C49.5122 32.48 52.7384 31.2222 55.9277 31.2222V59.2222ZM71.5403 43.5635V40.873H43.5403V43.5635H71.5403ZM57.5403 54.873H57.987V26.873H57.5403V54.873ZM43.987 40.873V45.5238H71.987V40.873H43.987ZM57.987 31.5238H57.5403V59.5238H57.987V31.5238ZM71.5403 45.5238V44.6587H43.5403V45.5238H71.5403ZM45.3503 37.7737C46.0735 36.4931 47.326 34.8589 49.3613 33.5574C51.4886 32.1972 53.7978 31.6349 55.8642 31.6349V59.6349C62.606 59.6349 67.3843 55.6972 69.7303 51.5437L45.3503 37.7737ZM55.8957 31.6349C58.6318 31.6411 62.0527 32.6756 64.7245 35.5356C67.2802 38.2715 68.0058 41.4468 68.0058 43.7169H40.0058C40.0058 47.1007 41.0724 51.2337 44.2633 54.6495C47.5701 58.1894 51.9202 59.6261 55.8328 59.6349L55.8957 31.6349Z" fill="black" mask="url(#path-21-inside-5)"/>
<path d="M64.4181 43.2063L64.0684 43.2311L64.0418 43.2063L64.0303 43.1958L64.0218 43.1878L63.9664 43.1365L64.3752 43.169L64.5069 43.1878L64.5625 43.1958L64.5642 43.196L64.4181 43.2063Z" fill="#3A3A3A" stroke="black" stroke-width="14"/>
<mask id="path-24-inside-6" fill="white">
<path d="M69.3677 38.8677H69.8145V45.5238H69.3677V38.8677Z"/>
</mask>
<path d="M69.3677 38.8677H69.8145V45.5238H69.3677V38.8677Z" fill="#3A3A3A"/>
<path d="M69.3677 38.8677V24.8677H55.3677V38.8677H69.3677ZM69.8145 38.8677H83.8145V24.8677H69.8145V38.8677ZM69.8145 45.5238V59.5238H83.8145V45.5238H69.8145ZM69.3677 45.5238H55.3677V59.5238H69.3677V45.5238ZM69.3677 52.8677H69.8145V24.8677H69.3677V52.8677ZM55.8145 38.8677V45.5238H83.8145V38.8677H55.8145ZM69.8145 31.5238H69.3677V59.5238H69.8145V31.5238ZM83.3677 45.5238V38.8677H55.3677V45.5238H83.3677Z" fill="black" mask="url(#path-24-inside-6)"/>
<mask id="path-26-inside-7" fill="white">
<path d="M78.2052 44.9391L78.4696 44.5846C78.9798 44.9762 79.5455 45.1957 80.1377 45.1957C80.7668 45.1957 81.2585 44.8492 81.2585 44.3121V44.2936C81.2585 43.746 80.6743 43.5449 80.0293 43.3624C79.2732 43.1428 78.4352 42.9153 78.4352 42.0846V42.0661C78.4352 41.3174 79.0644 40.7804 79.9658 40.7804C80.521 40.7804 81.1502 40.9815 81.6154 41.291L81.3775 41.664C80.9492 41.3809 80.439 41.1984 79.9473 41.1984C79.3102 41.1984 78.8899 41.5449 78.8899 42.0106V42.0291C78.8899 42.5476 79.5191 42.7407 80.1826 42.9312C80.9307 43.1402 81.7132 43.4153 81.7132 44.2354V44.2539C81.7132 45.0846 81.0021 45.6137 80.1086 45.6137C79.4371 45.6137 78.6996 45.3412 78.2052 44.9391Z"/>
</mask>
<path d="M78.2052 44.9391L78.4696 44.5846C78.9798 44.9762 79.5455 45.1957 80.1377 45.1957C80.7668 45.1957 81.2585 44.8492 81.2585 44.3121V44.2936C81.2585 43.746 80.6743 43.5449 80.0293 43.3624C79.2732 43.1428 78.4352 42.9153 78.4352 42.0846V42.0661C78.4352 41.3174 79.0644 40.7804 79.9658 40.7804C80.521 40.7804 81.1502 40.9815 81.6154 41.291L81.3775 41.664C80.9492 41.3809 80.439 41.1984 79.9473 41.1984C79.3102 41.1984 78.8899 41.5449 78.8899 42.0106V42.0291C78.8899 42.5476 79.5191 42.7407 80.1826 42.9312C80.9307 43.1402 81.7132 43.4153 81.7132 44.2354V44.2539C81.7132 45.0846 81.0021 45.6137 80.1086 45.6137C79.4371 45.6137 78.6996 45.3412 78.2052 44.9391Z" fill="#3A3A3A"/>
<path d="M78.2052 44.9391L66.9822 36.5698L58.9582 47.3299L69.3709 55.7998L78.2052 44.9391ZM78.4696 44.5846L86.9927 33.478L75.732 24.8367L67.2466 36.2153L78.4696 44.5846ZM80.0293 43.3624L76.1247 56.8069L76.1709 56.8203L76.2171 56.8334L80.0293 43.3624ZM81.6154 41.291L93.4187 48.8197L100.804 37.2413L89.3698 29.6347L81.6154 41.291ZM81.3775 41.664L73.6578 53.3433L85.5286 61.1896L93.1808 49.1927L81.3775 41.664ZM80.1826 42.9312L76.3198 56.3877L76.3678 56.4015L76.4159 56.4149L80.1826 42.9312ZM80.1086 45.6137L80.1086 31.6137L80.1086 45.6137ZM89.4282 53.3084L89.6925 52.9539L67.2466 36.2153L66.9822 36.5698L89.4282 53.3084ZM69.9464 55.6912C72.4332 57.5995 75.9208 59.1957 80.1377 59.1957V31.1957C83.1702 31.1957 85.5264 32.3528 86.9927 33.478L69.9464 55.6912ZM80.1377 59.1957C82.8837 59.1957 86.3221 58.4536 89.4253 56.0863C92.7911 53.5187 95.2585 49.3196 95.2585 44.3121H67.2585C67.2585 39.8417 69.4802 36.0844 72.4428 33.8244C75.1428 31.7646 78.0208 31.1957 80.1377 31.1957V59.1957ZM95.2585 44.3121V44.2936H67.2585V44.3121H95.2585ZM95.2585 44.2936C95.2585 37.7005 91.1764 33.6114 88.3003 31.8157C86.1347 30.4636 83.9294 29.9163 83.8415 29.8914L76.2171 56.8334C76.7742 56.9911 75.1836 56.6356 73.4713 55.5665C72.4346 54.9193 70.8162 53.6997 69.4564 51.6299C67.9891 49.3965 67.2585 46.8294 67.2585 44.2936H95.2585ZM83.9338 29.9179C83.6091 29.8236 83.8466 29.8884 84.1165 29.9836C84.4019 30.0842 85.2698 30.4004 86.3166 31.0483C87.4007 31.7193 89.0348 32.9659 90.3785 35.0708C91.8087 37.3112 92.4352 39.7841 92.4352 42.0846H64.4352C64.4352 44.8005 65.1664 47.6133 66.7774 50.1369C68.3019 52.525 70.1927 53.9979 71.5808 54.857C72.9317 55.6931 74.1508 56.1593 74.806 56.3903C75.4457 56.6158 76.0714 56.7914 76.1247 56.8069L83.9338 29.9179ZM92.4352 42.0846V42.0661H64.4352V42.0846H92.4352ZM92.4352 42.0661C92.4352 45.8991 90.7099 49.4633 87.8919 51.8415C85.2255 54.0918 82.24 54.7804 79.9658 54.7804V26.7804C73.6526 26.7804 64.4352 31.4533 64.4352 42.0661H92.4352ZM79.9658 54.7804C78.6224 54.7804 77.5056 54.55 76.651 54.2831C75.7883 54.0137 74.8359 53.5958 73.861 52.9473L89.3698 29.6347C86.7586 27.8975 83.4566 26.7804 79.9658 26.7804V54.7804ZM69.8121 33.7622L69.5742 34.1352L93.1808 49.1927L93.4187 48.8197L69.8121 33.7622ZM89.0972 29.9847C86.8973 28.5306 83.7459 27.1984 79.9473 27.1984V55.1984C77.1322 55.1984 75.0011 54.2312 73.6578 53.3433L89.0972 29.9847ZM79.9473 27.1984C74.9407 27.1984 64.8899 30.8329 64.8899 42.0106H92.8899C92.8899 46.3614 90.7892 50.1174 87.8183 52.4469C85.0434 54.6227 82.068 55.1984 79.9473 55.1984V27.1984ZM64.8899 42.0106V42.0291H92.8899V42.0106H64.8899ZM64.8899 42.0291C64.8899 49.4505 69.9829 53.4144 72.3557 54.7667C73.5212 55.4309 74.5533 55.815 75.0998 56.0052C75.6638 56.2014 76.1735 56.3457 76.3198 56.3877L84.0454 29.4746C83.3226 29.2671 84.7268 29.5892 86.2192 30.4396C87.1215 30.9538 88.7871 32.0482 90.2642 34.0502C91.9106 36.2816 92.8899 39.067 92.8899 42.0291H64.8899ZM76.4159 56.4149C76.913 56.5538 75.1842 56.1793 73.3342 54.9161C72.2187 54.1545 70.7167 52.8583 69.5164 50.8205C68.2598 48.6871 67.7132 46.3806 67.7132 44.2354H95.7132C95.7132 38.262 92.3871 34.0209 89.1228 31.7921C86.6944 30.1341 84.2004 29.5176 83.9493 29.4474L76.4159 56.4149ZM67.7132 44.2354V44.2539H95.7132V44.2354H67.7132ZM67.7132 44.2539C67.7132 40.3013 69.5541 36.7154 72.3971 34.3965C75.0123 32.2634 77.8969 31.6137 80.1086 31.6137V59.6137C85.9326 59.6137 95.7132 55.3481 95.7132 44.2539H67.7132ZM80.1086 31.6137C81.5953 31.6137 82.8431 31.8999 83.8164 32.249C84.7848 32.5963 85.9092 33.159 87.0395 34.0784L69.3709 55.7998C72.317 58.1963 76.1619 59.6137 80.1086 59.6137L80.1086 31.6137Z" fill="black" mask="url(#path-26-inside-7)"/>
<path d="M87.872 43.2063L87.5223 43.2311L87.4957 43.2063L87.4842 43.1958L87.4757 43.1878L87.4203 43.1365L87.8291 43.169L87.9608 43.1878L88.0164 43.1958L88.0181 43.196L87.872 43.2063Z" fill="#3A3A3A" stroke="black" stroke-width="14"/>
<mask id="path-29-inside-8" fill="white">
<path d="M92.7581 40.873H93.2049V41.7037C93.5063 41.2196 93.924 40.7645 94.754 40.7645C95.5656 40.7645 96.0653 41.2301 96.3217 41.7672C96.6231 41.2487 97.1227 40.7645 97.9977 40.7645C99.1001 40.7645 99.7848 41.5397 99.7848 42.7063V45.5238H99.338V42.7619C99.338 41.7592 98.8199 41.1746 97.9607 41.1746C97.1782 41.1746 96.4935 41.7751 96.4935 42.8148V45.5238H96.0468V42.7328C96.0468 41.7672 95.518 41.1746 94.688 41.1746C93.8579 41.1746 93.2023 41.9047 93.2023 42.8439V45.5238H92.7555V40.873H92.7581Z"/>
</mask>
<path d="M92.7581 40.873H93.2049V41.7037C93.5063 41.2196 93.924 40.7645 94.754 40.7645C95.5656 40.7645 96.0653 41.2301 96.3217 41.7672C96.6231 41.2487 97.1227 40.7645 97.9977 40.7645C99.1001 40.7645 99.7848 41.5397 99.7848 42.7063V45.5238H99.338V42.7619C99.338 41.7592 98.8199 41.1746 97.9607 41.1746C97.1782 41.1746 96.4935 41.7751 96.4935 42.8148V45.5238H96.0468V42.7328C96.0468 41.7672 95.518 41.1746 94.688 41.1746C93.8579 41.1746 93.2023 41.9047 93.2023 42.8439V45.5238H92.7555V40.873H92.7581Z" fill="#3A3A3A"/>
<path d="M93.2049 40.873H107.205V26.873H93.2049V40.873ZM93.2049 41.7037H79.2049V90.6852L105.09 49.1023L93.2049 41.7037ZM96.3217 41.7672L83.688 47.7996L95.1079 71.7163L108.426 48.8022L96.3217 41.7672ZM99.7848 45.5238V59.5238H113.785V45.5238H99.7848ZM99.338 45.5238H85.338V59.5238H99.338V45.5238ZM96.4935 45.5238V59.5238H110.494V45.5238H96.4935ZM96.0468 45.5238H82.0468V59.5238H96.0468V45.5238ZM93.2023 45.5238V59.5238H107.202V45.5238H93.2023ZM92.7555 45.5238H78.7555V59.5238H92.7555V45.5238ZM92.7555 40.873V26.873H78.7555V40.873H92.7555ZM92.7581 54.873H93.2049V26.873H92.7581V54.873ZM79.2049 40.873V41.7037H107.205V40.873H79.2049ZM105.09 49.1023C104.811 49.5516 103.818 51.0988 101.877 52.4741C99.6739 54.036 97.1364 54.7645 94.754 54.7645V26.7645C91.5416 26.7645 88.3802 27.7205 85.685 29.631C83.2531 31.3549 81.9006 33.3717 81.3196 34.3051L105.09 49.1023ZM94.754 54.7645C92.3179 54.7645 89.8004 54.0134 87.6393 52.4785C85.6047 51.0334 84.3834 49.256 83.688 47.7996L108.955 35.7348C106.919 31.4701 102.119 26.7645 94.754 26.7645V54.7645ZM108.426 48.8022C107.87 49.7582 106.777 51.3092 104.843 52.6303C102.749 54.0618 100.331 54.7645 97.9977 54.7645V26.7645C90.5838 26.7645 86.133 31.4367 84.2176 34.7322L108.426 48.8022ZM97.9977 54.7645C95.0928 54.7645 91.6037 53.6373 88.9489 50.7191C86.4283 47.9484 85.7848 44.813 85.7848 42.7063H113.785C113.785 39.433 112.799 35.3267 109.66 31.8767C106.388 28.2793 102.005 26.7645 97.9977 26.7645V54.7645ZM85.7848 42.7063V45.5238H113.785V42.7063H85.7848ZM99.7848 31.5238H99.338V59.5238H99.7848V31.5238ZM113.338 45.5238V42.7619H85.338V45.5238H113.338ZM113.338 42.7619C113.338 39.9863 112.618 35.9367 109.52 32.387C106.203 28.5868 101.747 27.1746 97.9607 27.1746V55.1746C95.034 55.1746 91.2659 54.0547 88.4234 50.7975C85.7994 47.7907 85.338 44.5348 85.338 42.7619H113.338ZM97.9607 27.1746C88.9176 27.1746 82.4935 34.5825 82.4935 42.8148H110.494C110.494 45.4604 109.561 48.6676 107.031 51.302C104.545 53.8907 101.211 55.1746 97.9607 55.1746V27.1746ZM82.4935 42.8148V45.5238H110.494V42.8148H82.4935ZM96.4935 31.5238H96.0468V59.5238H96.4935V31.5238ZM110.047 45.5238V42.7328H82.0468V45.5238H110.047ZM110.047 42.7328C110.047 39.7862 109.227 35.8044 106.201 32.3571C102.997 28.7061 98.6378 27.1746 94.688 27.1746V55.1746C91.5682 55.1746 87.8883 53.9394 85.1561 50.8261C82.6027 47.9165 82.0468 44.7138 82.0468 42.7328H110.047ZM94.688 27.1746C84.6699 27.1746 79.2023 35.7138 79.2023 42.8439H107.202C107.202 48.0956 103.046 55.1746 94.688 55.1746V27.1746ZM79.2023 42.8439V45.5238H107.202V42.8439H79.2023ZM93.2023 31.5238H92.7555V59.5238H93.2023V31.5238ZM106.755 45.5238V40.873H78.7555V45.5238H106.755ZM92.7555 54.873H92.7581V26.873H92.7555V54.873Z" fill="black" mask="url(#path-29-inside-8)"/>
<mask id="path-31-inside-9" fill="white">
<path d="M108.731 41.283H108.057V40.873H108.731V40.418C108.731 39.8889 108.876 39.4709 109.14 39.2063C109.378 38.9682 109.706 38.8412 110.116 38.8412C110.399 38.8412 110.6 38.8783 110.809 38.9497V39.3703C110.544 39.2883 110.354 39.2513 110.116 39.2513C109.479 39.2513 109.177 39.6349 109.177 40.4285V40.8756H110.801V41.2857H109.177V45.5264H108.731V41.283Z"/>
</mask>
<path d="M108.731 41.283H108.057V40.873H108.731V40.418C108.731 39.8889 108.876 39.4709 109.14 39.2063C109.378 38.9682 109.706 38.8412 110.116 38.8412C110.399 38.8412 110.6 38.8783 110.809 38.9497V39.3703C110.544 39.2883 110.354 39.2513 110.116 39.2513C109.479 39.2513 109.177 39.6349 109.177 40.4285V40.8756H110.801V41.2857H109.177V45.5264H108.731V41.283Z" fill="#3A3A3A"/>
<path d="M108.731 41.283H122.731V27.283H108.731V41.283ZM108.057 41.283H94.0566V55.283H108.057V41.283ZM108.057 40.873V26.873H94.0566V40.873H108.057ZM108.731 40.873V54.873H122.731V40.873H108.731ZM110.809 38.9497H124.809V28.9418L115.339 25.7031L110.809 38.9497ZM110.809 39.3703L106.66 52.7417L124.809 58.3717V39.3703H110.809ZM109.177 40.8756H95.1775V54.8756H109.177V40.8756ZM110.801 40.8756H124.801V26.8756H110.801V40.8756ZM110.801 41.2857V55.2857H124.801V41.2857H110.801ZM109.177 41.2857V27.2857H95.1775V41.2857H109.177ZM109.177 45.5264V59.5264H123.177V45.5264H109.177ZM108.731 45.5264H94.7307V59.5264H108.731V45.5264ZM108.731 27.283H108.057V55.283H108.731V27.283ZM122.057 41.283V40.873H94.0566V41.283H122.057ZM108.057 54.873H108.731V26.873H108.057V54.873ZM122.731 40.873V40.418H94.7307V40.873H122.731ZM122.731 40.418C122.731 42.2039 122.247 45.896 119.044 49.1022L99.2374 29.3104C95.5048 33.0457 94.7307 37.5738 94.7307 40.418H122.731ZM119.044 49.1022C116.218 51.9298 112.752 52.8412 110.116 52.8412V24.8412C106.66 24.8412 102.539 26.0066 99.2374 29.3104L119.044 49.1022ZM110.116 52.8412C109.634 52.8412 108.991 52.809 108.24 52.6867C107.471 52.5615 106.807 52.3774 106.278 52.1963L115.339 25.7031C113.612 25.1125 111.876 24.8412 110.116 24.8412V52.8412ZM96.8085 38.9497V39.3703H124.809V38.9497H96.8085ZM114.957 25.999C113.828 25.6488 112.187 25.2513 110.116 25.2513V53.2513C109.454 53.2513 108.745 53.1953 108.015 53.0663C107.344 52.9476 106.85 52.8004 106.66 52.7417L114.957 25.999ZM110.116 25.2513C106.855 25.2513 101.985 26.3785 98.4454 30.8345C95.432 34.628 95.1775 38.686 95.1775 40.4285H123.177C123.177 41.3774 123.074 44.8468 120.37 48.2502C117.141 52.3159 112.74 53.2513 110.116 53.2513V25.2513ZM95.1775 40.4285V40.8756H123.177V40.4285H95.1775ZM109.177 54.8756H110.801V26.8756H109.177V54.8756ZM96.8006 40.8756V41.2857H124.801V40.8756H96.8006ZM110.801 27.2857H109.177V55.2857H110.801V27.2857ZM95.1775 41.2857V45.5264H123.177V41.2857H95.1775ZM109.177 31.5264H108.731V59.5264H109.177V31.5264ZM122.731 45.5264V41.283H94.7307V45.5264H122.731Z" fill="black" mask="url(#path-31-inside-9)"/>
<mask id="path-33-inside-10" fill="white">
<path d="M115.593 39.0502H116.149V39.6613H115.593V39.0502ZM115.646 40.873H116.093V45.5238H115.646V40.873Z"/>
</mask>
<path d="M115.593 39.0502H116.149V39.6613H115.593V39.0502ZM115.646 40.873H116.093V45.5238H115.646V40.873Z" fill="#3A3A3A"/>
<path d="M115.593 39.0502V25.0502H101.593V39.0502H115.593ZM116.149 39.0502H130.149V25.0502H116.149V39.0502ZM116.149 39.6613V53.6613H130.149V39.6613H116.149ZM115.593 39.6613H101.593V53.6613H115.593V39.6613ZM115.646 40.873V26.873H101.646V40.873H115.646ZM116.093 40.873H130.093V26.873H116.093V40.873ZM116.093 45.5238V59.5238H130.093V45.5238H116.093ZM115.646 45.5238H101.646V59.5238H115.646V45.5238ZM115.593 53.0502H116.149V25.0502H115.593V53.0502ZM102.149 39.0502V39.6613H130.149V39.0502H102.149ZM116.149 25.6613H115.593V53.6613H116.149V25.6613ZM129.593 39.6613V39.0502H101.593V39.6613H129.593ZM115.646 54.873H116.093V26.873H115.646V54.873ZM102.093 40.873V45.5238H130.093V40.873H102.093ZM116.093 31.5238H115.646V59.5238H116.093V31.5238ZM129.646 45.5238V40.873H101.646V45.5238H129.646Z" fill="black" mask="url(#path-33-inside-10)"/>
<mask id="path-35-inside-11" fill="white">
<path d="M119.501 44.1745V44.156C119.501 43.1904 120.331 42.6428 121.534 42.6428C122.181 42.6428 122.628 42.7248 123.075 42.8439V42.6428C123.075 41.7037 122.501 41.2195 121.544 41.2195C120.978 41.2195 120.513 41.3756 120.085 41.5925L119.921 41.201C120.431 40.9629 120.933 40.7989 121.571 40.7989C122.2 40.7989 122.699 40.9735 123.038 41.3095C123.347 41.619 123.511 42.0476 123.511 42.6216V45.5211H123.075V44.746C122.755 45.1931 122.181 45.6296 121.298 45.6296C120.431 45.6322 119.501 45.1402 119.501 44.1745ZM123.083 43.783V43.2539C122.691 43.1534 122.171 43.0449 121.507 43.0449C120.524 43.0449 119.977 43.4841 119.977 44.1296V44.1481C119.977 44.8227 120.614 45.2142 121.325 45.2142C122.271 45.2142 123.083 44.6296 123.083 43.783Z"/>
</mask>
<path d="M119.501 44.1745V44.156C119.501 43.1904 120.331 42.6428 121.534 42.6428C122.181 42.6428 122.628 42.7248 123.075 42.8439V42.6428C123.075 41.7037 122.501 41.2195 121.544 41.2195C120.978 41.2195 120.513 41.3756 120.085 41.5925L119.921 41.201C120.431 40.9629 120.933 40.7989 121.571 40.7989C122.2 40.7989 122.699 40.9735 123.038 41.3095C123.347 41.619 123.511 42.0476 123.511 42.6216V45.5211H123.075V44.746C122.755 45.1931 122.181 45.6296 121.298 45.6296C120.431 45.6322 119.501 45.1402 119.501 44.1745ZM123.083 43.783V43.2539C122.691 43.1534 122.171 43.0449 121.507 43.0449C120.524 43.0449 119.977 43.4841 119.977 44.1296V44.1481C119.977 44.8227 120.614 45.2142 121.325 45.2142C122.271 45.2142 123.083 44.6296 123.083 43.783Z" fill="#3A3A3A"/>
<path d="M123.075 42.8439L119.47 56.3718L137.075 61.0629V42.8439H123.075ZM120.085 41.5925L107.171 46.9986L112.983 60.8835L126.411 54.0817L120.085 41.5925ZM119.921 41.201L114.001 28.5144L101.814 34.2015L107.007 46.607L119.921 41.201ZM123.038 41.3095L132.941 31.4136L132.921 31.3941L132.902 31.3748L123.038 41.3095ZM123.511 45.5211V59.5211H137.511V45.5211H123.511ZM123.075 45.5211H109.075V59.5211H123.075V45.5211ZM123.075 44.746H137.075V1.11769L111.689 36.5998L123.075 44.746ZM121.298 45.6296V31.6296H121.277L121.256 31.6296L121.298 45.6296ZM123.083 43.2539H137.083V32.3964L126.567 29.6944L123.083 43.2539ZM133.501 44.1745V44.156H105.501V44.1745H133.501ZM133.501 44.156C133.501 48.2425 131.488 52.0654 128.245 54.3998C125.497 56.3776 122.829 56.6428 121.534 56.6428V28.6428C119.035 28.6428 115.351 29.1818 111.887 31.6749C107.928 34.5245 105.501 39.1039 105.501 44.156H133.501ZM121.534 56.6428C121.247 56.6428 120.858 56.6233 120.406 56.5589C119.955 56.4947 119.615 56.4104 119.47 56.3718L126.68 29.3159C125.27 28.9403 123.601 28.6428 121.534 28.6428V56.6428ZM137.075 42.8439V42.6428H109.075V42.8439H137.075ZM137.075 42.6428C137.075 39.2473 135.944 34.7168 132.071 31.2061C128.419 27.896 124.217 27.2195 121.544 27.2195V55.2195C119.828 55.2195 116.392 54.7851 113.266 51.9518C109.919 48.918 109.075 45.0991 109.075 42.6428H137.075ZM121.544 27.2195C118.177 27.2195 115.527 28.2076 113.759 29.1034L126.411 54.0817C125.499 54.5436 123.78 55.2195 121.544 55.2195V27.2195ZM132.999 36.1865L132.835 35.795L107.007 46.607L107.171 46.9986L132.999 36.1865ZM125.841 53.8876C125.626 53.9879 125.06 54.2395 124.26 54.4499C123.415 54.6723 122.503 54.7989 121.571 54.7989V26.7989C118.209 26.7989 115.631 27.7537 114.001 28.5144L125.841 53.8876ZM121.571 54.7989C119.704 54.7989 116.201 54.2506 113.174 51.2441L132.902 31.3748C129.197 27.6964 124.696 26.7989 121.571 26.7989V54.7989ZM113.135 51.2054C110.256 48.3243 109.511 44.8748 109.511 42.6216H137.511C137.511 39.2203 136.438 34.9137 132.941 31.4136L113.135 51.2054ZM109.511 42.6216V45.5211H137.511V42.6216H109.511ZM123.511 31.5211H123.075V59.5211H123.511V31.5211ZM137.075 45.5211V44.746H109.075V45.5211H137.075ZM111.689 36.5998C113.531 34.0253 116.917 31.6296 121.298 31.6296V59.6296C127.445 59.6296 131.979 56.3608 134.461 52.8921L111.689 36.5998ZM121.256 31.6296C123.237 31.6236 125.775 32.1335 128.207 33.8697C131.01 35.8704 133.501 39.5118 133.501 44.1745H105.501C105.501 49.8029 108.456 54.1732 111.941 56.6606C115.056 58.8836 118.493 59.6382 121.341 59.6295L121.256 31.6296ZM137.083 43.783V43.2539H109.083V43.783H137.083ZM126.567 29.6944C125.528 29.4274 123.763 29.0449 121.507 29.0449V57.0449C121.067 57.0449 120.659 57.0081 120.301 56.9539C119.948 56.9004 119.688 56.8364 119.599 56.8135L126.567 29.6944ZM121.507 29.0449C119.148 29.0449 115.517 29.545 112.094 32.0556C108.218 34.8977 105.977 39.3716 105.977 44.1296H133.977C133.977 48.2421 132.008 52.1736 128.652 54.6348C125.748 56.7644 122.883 57.0449 121.507 57.0449V29.0449ZM105.977 44.1296V44.1481H133.977V44.1296H105.977ZM105.977 44.1481C105.977 49.4556 108.693 53.7185 112.098 56.219C115.189 58.4881 118.585 59.2142 121.325 59.2142V31.2142C123.353 31.2142 126.075 31.7446 128.67 33.6492C131.579 35.7853 133.977 39.5152 133.977 44.1481H105.977ZM121.325 59.2142C126.648 59.2142 137.083 55.3358 137.083 43.783H109.083C109.083 39.3257 111.341 35.8227 113.917 33.8012C116.336 31.904 119.032 31.2142 121.325 31.2142V59.2142Z" fill="black" mask="url(#path-35-inside-11)"/>
<mask id="path-37-inside-12" fill="white">
<path d="M126.964 43.2169V43.1984C126.964 41.6852 128.103 40.7645 129.224 40.7645C130.154 40.7645 130.754 41.2936 131.138 41.8783V38.8704H131.584V45.5264H131.138V44.4868C130.736 45.0979 130.144 45.6349 129.224 45.6349C128.103 45.6323 126.964 44.7302 126.964 43.2169ZM131.164 43.2063V43.1878C131.164 41.9921 130.234 41.1905 129.269 41.1905C128.256 41.1905 127.447 41.9286 127.447 43.1772V43.1958C127.447 44.418 128.296 45.2011 129.269 45.2011C130.236 45.2037 131.164 44.3942 131.164 43.2063Z"/>
</mask>
<path d="M126.964 43.2169V43.1984C126.964 41.6852 128.103 40.7645 129.224 40.7645C130.154 40.7645 130.754 41.2936 131.138 41.8783V38.8704H131.584V45.5264H131.138V44.4868C130.736 45.0979 130.144 45.6349 129.224 45.6349C128.103 45.6323 126.964 44.7302 126.964 43.2169ZM131.164 43.2063V43.1878C131.164 41.9921 130.234 41.1905 129.269 41.1905C128.256 41.1905 127.447 41.9286 127.447 43.1772V43.1958C127.447 44.418 128.296 45.2011 129.269 45.2011C130.236 45.2037 131.164 44.3942 131.164 43.2063Z" fill="#3A3A3A"/>
<path d="M131.138 41.8783L119.43 49.5544L145.138 88.7655V41.8783H131.138ZM131.138 38.8704V24.8704H117.138V38.8704H131.138ZM131.584 38.8704H145.584V24.8704H131.584V38.8704ZM131.584 45.5264V59.5264H145.584V45.5264H131.584ZM131.138 45.5264H117.138V59.5264H131.138V45.5264ZM131.138 44.4868H145.138V-2.2872L119.44 36.7951L131.138 44.4868ZM129.224 45.6349L129.191 59.6349L129.207 59.6349H129.224V45.6349ZM129.269 45.2011L129.307 31.2011L129.288 31.2011H129.269V45.2011ZM140.964 43.2169V43.1984H112.964V43.2169H140.964ZM140.964 43.1984C140.964 49.5931 135.658 54.7645 129.224 54.7645V26.7645C120.548 26.7645 112.964 33.7773 112.964 43.1984H140.964ZM129.224 54.7645C126.856 54.7645 124.594 54.0411 122.728 52.8217C121.004 51.6955 119.977 50.389 119.43 49.5544L142.846 34.2022C140.921 31.2668 136.507 26.7645 129.224 26.7645V54.7645ZM145.138 41.8783V38.8704H117.138V41.8783H145.138ZM131.138 52.8704H131.584V24.8704H131.138V52.8704ZM117.584 38.8704V45.5264H145.584V38.8704H117.584ZM131.584 31.5264H131.138V59.5264H131.584V31.5264ZM145.138 45.5264V44.4868H117.138V45.5264H145.138ZM119.44 36.7951C119.894 36.1049 120.862 34.8163 122.563 33.6723C124.434 32.4143 126.754 31.6349 129.224 31.6349V59.6349C136.732 59.6349 141.08 54.8479 142.836 52.1784L119.44 36.7951ZM129.257 31.635C135.51 31.6497 140.964 36.6701 140.964 43.2169H112.964C112.964 52.7902 120.696 59.6148 129.191 59.6349L129.257 31.635ZM145.164 43.2063V43.1878H117.164V43.2063H145.164ZM145.164 43.1878C145.164 34.1334 137.838 27.1905 129.269 27.1905V55.1905C122.629 55.1905 117.164 49.8507 117.164 43.1878H145.164ZM129.269 27.1905C125.282 27.1905 121.086 28.6977 117.906 31.9923C114.711 35.3019 113.447 39.4572 113.447 43.1772H141.447C141.447 45.6487 140.588 48.8105 138.051 51.4389C135.528 54.0522 132.243 55.1905 129.269 55.1905V27.1905ZM113.447 43.1772V43.1958H141.447V43.1772H113.447ZM113.447 43.1958C113.447 51.5715 119.998 59.2011 129.269 59.2011V31.2011C136.594 31.2011 141.447 37.2645 141.447 43.1958H113.447ZM129.23 59.201C137.891 59.2247 145.164 52.1947 145.164 43.2063H117.164C117.164 36.5936 122.581 31.1827 129.307 31.2011L129.23 59.201Z" fill="black" mask="url(#path-37-inside-12)"/>
<path d="M135.111 43.2169V43.1984C135.111 43.1922 135.111 43.186 135.111 43.1799C135.121 41.8901 136.12 40.776 137.488 40.7646C137.488 40.7646 137.489 40.7646 137.49 40.7646C137.496 40.7646 137.501 40.7645 137.506 40.7645C137.507 40.7645 137.508 40.7645 137.509 40.7645C138.886 40.7645 139.888 41.8783 139.888 43.1799V43.1984C139.888 43.2046 139.888 43.2107 139.888 43.2169C139.878 44.5075 138.878 45.6222 137.509 45.6322C137.508 45.6322 137.507 45.6322 137.506 45.6322C137.501 45.6322 137.496 45.6323 137.49 45.6323C137.489 45.6323 137.488 45.6323 137.488 45.6323C136.112 45.6308 135.111 44.5203 135.111 43.2169ZM139.402 43.2169V43.1984C139.402 43.1922 139.402 43.186 139.401 43.1799C139.392 42.0742 138.569 41.1942 137.509 41.1826C137.508 41.1826 137.507 41.1826 137.506 41.1826C137.501 41.1826 137.496 41.1825 137.49 41.1825C137.489 41.1825 137.488 41.1825 137.488 41.1825C136.385 41.1825 135.592 42.0846 135.592 43.1799V43.1984C135.592 43.2046 135.592 43.2107 135.592 43.2169C135.601 44.3235 136.427 45.204 137.488 45.2142C137.488 45.2142 137.489 45.2142 137.49 45.2142C137.496 45.2142 137.501 45.2143 137.506 45.2143C137.507 45.2143 137.508 45.2143 137.509 45.2143C138.61 45.2128 139.402 44.3113 139.402 43.2169Z" fill="#3A3A3A" stroke="black" stroke-width="14"/>
<mask id="path-40-inside-13" fill="white">
<path d="M143.412 40.873H143.859V42.1957C144.224 41.365 144.998 40.7645 145.918 40.8016V41.2936H145.873C144.797 41.2936 143.859 42.1058 143.859 43.619V45.5238H143.412V40.873Z"/>
</mask>
<path d="M143.412 40.873H143.859V42.1957C144.224 41.365 144.998 40.7645 145.918 40.8016V41.2936H145.873C144.797 41.2936 143.859 42.1058 143.859 43.619V45.5238H143.412V40.873Z" fill="#3A3A3A"/>
<path d="M143.412 40.873V26.873H129.412V40.873H143.412ZM143.859 40.873H157.859V26.873H143.859V40.873ZM143.859 42.1957H129.859L156.677 47.8252L143.859 42.1957ZM145.918 40.8016H159.918V27.3538L146.481 26.8129L145.918 40.8016ZM145.918 41.2936V55.2936H159.918V41.2936H145.918ZM143.859 45.5238V59.5238H157.859V45.5238H143.859ZM143.412 45.5238H129.412V59.5238H143.412V45.5238ZM143.412 54.873H143.859V26.873H143.412V54.873ZM129.859 40.873V42.1957H157.859V40.873H129.859ZM156.677 47.8252C155.245 51.0864 151.38 55.0328 145.355 54.7902L146.481 26.8129C138.616 26.4962 133.202 31.6437 131.04 36.5663L156.677 47.8252ZM131.918 40.8016V41.2936H159.918V40.8016H131.918ZM145.918 27.2936H145.873V55.2936H145.918V27.2936ZM145.873 27.2936C141.738 27.2936 137.457 28.9043 134.267 32.294C131.062 35.6999 129.859 39.913 129.859 43.619H157.859C157.859 45.8118 157.125 48.8622 154.657 51.4837C152.206 54.089 148.932 55.2936 145.873 55.2936V27.2936ZM129.859 43.619V45.5238H157.859V43.619H129.859ZM143.859 31.5238H143.412V59.5238H143.859V31.5238ZM157.412 45.5238V40.873H129.412V45.5238H157.412Z" fill="black" mask="url(#path-40-inside-13)"/>
<defs>
<linearGradient id="paint0_linear" x1="0" y1="25.8452" x2="18.8434" y2="25.8452" gradientUnits="userSpaceOnUse">
<stop offset="0.7718" stop-color="#2A66FF"/>
<stop offset="1" stop-color="#1E06CD"/>
</linearGradient>
<linearGradient id="paint1_linear" x1="33.0343" y1="5.4881" x2="33.1876" y2="5.4881" gradientUnits="userSpaceOnUse">
<stop/>
<stop offset="0.5395" stop-color="#3A3A3A"/>
</linearGradient>
<linearGradient id="paint2_linear" x1="14.8656" y1="43.1001" x2="18.0966" y2="43.1001" gradientUnits="userSpaceOnUse">
<stop offset="0.7718" stop-color="#2A66FF"/>
<stop offset="1" stop-color="#2A66FF"/>
</linearGradient>
<linearGradient id="paint3_linear" x1="23.8542" y1="17.681" x2="46.8745" y2="17.681" gradientUnits="userSpaceOnUse">
<stop/>
<stop offset="0.5395" stop-color="#3A3A3A"/>
</linearGradient>
</defs>
</svg>
